<svg id="Слой_1" xmlns="http://www.w3.org/2000/svg" viewBox="0 0 90.5 128"><style>.st0{fill:#FFFFFF;}</style><path class="st0" d="M45.3 24c-5.4 0-9.8 4.4-9.8 9.8s4.4 9.8 9.8 9.8 9.8-4.4 9.8-9.8-4.5-9.8-9.8-9.8z"/><path class="st0" d="M73 9.8H61.8C61.8 4.4 57.4 0 52 0H38.5c-5.4 0-9.8 4.4-9.8 9.8H17.5c-5.4 0-9.8 4.4-9.8 9.8V48c0 5.4 4.4 9.8 9.8 9.8H73c5.4 0 9.8-4.4 9.8-9.8V19.5c0-5.4-4.4-9.7-9.8-9.7zM45.3 51C35.8 51 28 43.3 28 33.8s7.7-17.3 17.3-17.3 17.3 7.7 17.3 17.3S54.8 51 45.3 51z"/><g id="XMLID_11_"><g id="XMLID_312_"><path id="XMLID_341_" class="st0" d="M9.7 91.7h-5l-1 3.3h-3l4.9-14.1h3.5L14 95h-3.2l-1.1-3.3zm-4.3-2.3h3.7l-1.7-5.5h-.3l-1.7 5.5z"/><path id="XMLID_338_" class="st0" d="M15.1 89.6c0-3.4 1.7-5.5 4.4-5.5 1.5 0 2.7.7 3.2 1.9h.2v-5.8h2.8V95H23v-1.7h-.2c-.6 1.2-1.8 1.9-3.3 1.9-2.7 0-4.4-2.1-4.4-5.6zm2.9.1c0 2 .9 3.2 2.4 3.2s2.4-1.2 2.4-3.2-.9-3.2-2.4-3.2-2.4 1.2-2.4 3.2z"/><path id="XMLID_335_" class="st0" d="M28.1 89.6c0-3.4 1.7-5.5 4.4-5.5 1.5 0 2.7.7 3.2 1.9h.2v-5.8h2.8V95h-2.8v-1.7h-.2c-.6 1.2-1.8 1.9-3.3 1.9-2.6 0-4.3-2.1-4.3-5.6zm2.9.1c0 2 .9 3.2 2.4 3.2s2.4-1.2 2.4-3.2-.9-3.2-2.4-3.2-2.4 1.2-2.4 3.2z"/><path id="XMLID_333_" class="st0" d="M47.1 98.9v-2.3h.6c1.1 0 1.7-.4 1.9-1.2l.1-.4-3.8-10.8H49l2.3 8.2h.2l2.3-8.2h3l-3.7 10.9c-1 2.9-2.3 3.9-5 3.9-.1 0-.9 0-1-.1z"/><path id="XMLID_330_" class="st0" d="M57.7 89.7c0-3.5 2-5.6 5.3-5.6s5.3 2.1 5.3 5.6c0 3.5-2 5.6-5.3 5.6s-5.3-2.1-5.3-5.6zm7.7 0c0-2.1-.9-3.3-2.4-3.3s-2.4 1.2-2.4 3.3c0 2.1.9 3.3 2.4 3.3s2.4-1.3 2.4-3.3z"/><path id="XMLID_328_" class="st0" d="M80.5 95h-2.8v-1.7h-.2c-.5 1.2-1.7 2-3.3 2-2.4 0-3.9-1.5-3.9-4v-7h2.8v6.3c0 1.5.8 2.2 2.1 2.2 1.4 0 2.3-.9 2.3-2.3v-6.2h2.8V95z"/><path id="XMLID_326_" class="st0" d="M83.3 84.3h2.8V86h.2c.3-1.1 1.4-1.9 2.7-1.9.4 0 .8 0 1.1.1v2.6c-.2-.1-.9-.2-1.3-.2-1.5 0-2.6.9-2.6 2.4v6h-2.8V84.3z"/><path id="XMLID_323_" class="st0" d="M28.1 113.7c0 3.5-1.7 5.6-4.3 5.6-1.5 0-2.7-.7-3.3-1.8h-.2v5h-2.8v-14.1h2.8v1.8h.2c.6-1.2 1.8-1.9 3.3-1.9 2.7-.2 4.3 1.9 4.3 5.4zm-2.9 0c0-2-.9-3.2-2.4-3.2s-2.5 1.2-2.5 3.2.9 3.2 2.4 3.2c1.6-.1 2.5-1.3 2.5-3.2z"/><path id="XMLID_321_" class="st0" d="M30.5 104.2h2.8v5.9h.2c.5-1.2 1.8-2 3.4-2 2.4 0 3.8 1.5 3.8 4v6.9h-2.8v-6.3c0-1.5-.8-2.3-2.1-2.3-1.4 0-2.4.9-2.4 2.3v6.2h-2.8v-14.7z"/><path id="XMLID_318_" class="st0" d="M42.8 113.7c0-3.5 2-5.6 5.3-5.6s5.3 2.1 5.3 5.6c0 3.5-2 5.6-5.3 5.6s-5.3-2.1-5.3-5.6zm7.7 0c0-2.1-.9-3.3-2.4-3.3s-2.4 1.2-2.4 3.3c0 2.1.9 3.3 2.4 3.3s2.4-1.3 2.4-3.3z"/><path id="XMLID_316_" class="st0" d="M59.2 105.8v2.6h2.3v2.2h-2.3v4.8c0 .9.4 1.4 1.4 1.4h.8v2.2c-.4.1-.9.1-1.4.1-2.6 0-3.7-.8-3.7-2.9v-5.5h-1.7v-2.2h1.7v-2.6h2.9z"/><path id="XMLID_313_" class="st0" d="M63 113.7c0-3.5 2-5.6 5.3-5.6s5.3 2.1 5.3 5.6c0 3.5-2 5.6-5.3 5.6s-5.3-2.1-5.3-5.6zm7.6 0c0-2.1-.9-3.3-2.4-3.3s-2.4 1.2-2.4 3.3c0 2.1.9 3.3 2.4 3.3 1.6 0 2.4-1.3 2.4-3.3z"/></g></g></svg>