<svg xmlns="http://www.w3.org/2000/svg" viewBox="0 0 105.4 18.1"><path d="M1.4 1.8h3.5v9.9h4.9v3.6H1.4V1.8zM19.2 1.8c3.7 0 6.8 3 6.8 6.8 0 3.7-3 6.7-6.8 6.7-3.7 0-6.7-3-6.7-6.7 0-3.8 3-6.8 6.7-6.8zm0 3.5c-1.8 0-3.2 1.4-3.2 3.2 0 1.8 1.4 3.2 3.2 3.2 1.8 0 3.2-1.5 3.2-3.2 0-1.7-1.4-3.2-3.2-3.2zM35.8 1.8c3.7 0 6.8 3 6.8 6.8 0 3.7-3 6.7-6.8 6.7s-6.7-3-6.7-6.7C29 4.8 32 1.8 35.8 1.8zm0 3.5c-1.8 0-3.2 1.4-3.2 3.2 0 1.8 1.4 3.2 3.2 3.2 1.8 0 3.2-1.5 3.2-3.2 0-1.7-1.5-3.2-3.2-3.2zM59.2 1.8L53 8l7.3 7.3h-5l-4.8-4.8-.8.9v3.9h-3.5V1.8h3.5v4.6l4.5-4.6h5zM62.5 15.3l6.3-13.5h1.6l6.4 13.5h-3.5l-.8-1.8H67l-1 1.8h-3.5zm5.7-4.8H71l-1.4-3-1.4 3zM79.6 1.8h5.7c2.7 0 5 2.2 5 5 0 2.7-2.2 5-4.9 5h-2.2v3.6h-3.5V1.8zm3.5 6.9h2.2c1.1 0 1.9-.8 1.9-1.9s-.9-1.9-1.9-1.9h-2.2v3.8zM93.3 1.8H99c2.7 0 5 2.2 5 5 0 2.7-2.2 5-4.9 5h-2.2v3.6h-3.5V1.8zm3.5 6.9H99c1.1 0 1.9-.8 1.9-1.9S100 4.9 99 4.9h-2.2v3.8z"/></svg>